<svg width="250" height="250" viewBox="0 0 250 250" fill="none" xmlns="http://www.w3.org/2000/svg">
<circle cx="125" cy="125" r="125" fill="#311B92"/>
<g filter="url(#filter0_d)">
<g filter="url(#filter1_d)">
<rect x="60.8941" y="51.7355" width="127.72" height="155.564" fill="#EAEBEB"/>
</g>
<rect x="74.9434" y="66.0954" width="103.453" height="4.7866" fill="#C4C4C4"/>
<rect x="74.9434" y="78.0619" width="103.453" height="4.7866" fill="#C4C4C4"/>
<rect x="74.9434" y="90.0284" width="103.453" height="4.7866" fill="#C4C4C4"/>
<rect x="74.9434" y="101.995" width="103.453" height="4.7866" fill="#C4C4C4"/>
<rect x="74.9434" y="113.961" width="103.453" height="4.7866" fill="#C4C4C4"/>
<rect x="74.9434" y="127.124" width="103.453" height="4.7866" fill="#C4C4C4"/>
<rect x="74.9434" y="141.484" width="51.0881" height="4.7866" fill="#C4C4C4"/>
<rect x="74.9434" y="141.484" width="51.0881" height="4.7866" fill="#C4C4C4"/>
<rect x="74.9434" y="153.451" width="51.0881" height="4.7866" fill="#C4C4C4"/>
<rect x="74.9434" y="165.417" width="51.0881" height="4.7866" fill="#C4C4C4"/>
<rect x="74.9434" y="177.384" width="51.0881" height="4.7866" fill="#C4C4C4"/>
<rect x="74.9434" y="189.35" width="51.0881" height="4.7866" fill="#C4C4C4"/>
<path d="M176.225 147.198H165.085C167.099 149.151 168.373 151.537 168.908 154.358H178.397L176.225 160.072H169.05C168.483 164.363 166.265 167.594 162.394 169.763C158.523 171.933 153.141 173.018 146.249 173.018L169.522 193.703V194.137H158.806L133.787 171.825L133.739 167.304H145.494C149.428 167.28 152.622 166.629 155.077 165.352C157.532 164.05 159.089 162.29 159.75 160.072H132.418L134.589 154.358H159.656C158.145 149.778 153.519 147.391 145.777 147.198H132.512L134.731 141.484H178.397L176.225 147.198Z" fill="#7D7D7D"/>
<path d="M183.267 43.359L188.838 52.3339H177.696L183.267 43.359Z" fill="#EAEBEB"/>
<path d="M77.2012 43.359L82.7722 52.3339H71.6302L77.2012 43.359Z" fill="#EAEBEB"/>
<path d="M66.6875 43L72.2887 51.9749H61.0864L66.6875 43Z" fill="#EAEBEB"/>
<path d="M87.687 43.359L93.258 52.3339H82.1159L87.687 43.359Z" fill="#EAEBEB"/>
<path d="M140.778 43.359L146.349 52.3339H135.207L140.778 43.359Z" fill="#EAEBEB"/>
<path d="M172.781 43.359L178.352 52.3339H167.21L172.781 43.359Z" fill="#EAEBEB"/>
<path d="M162.296 43.359L167.867 52.3339H156.725L162.296 43.359Z" fill="#EAEBEB"/>
<path d="M151.81 43.359L157.381 52.3339H146.239L151.81 43.359Z" fill="#EAEBEB"/>
<path d="M129.63 43.359L135.201 52.3339H124.059L129.63 43.359Z" fill="#EAEBEB"/>
<path d="M119.144 43.359L124.715 52.3339H113.573L119.144 43.359Z" fill="#EAEBEB"/>
<path d="M108.658 43.359L114.229 52.3339H103.087L108.658 43.359Z" fill="#EAEBEB"/>
<path d="M98.1727 43.359L103.744 52.3339H92.6016L98.1727 43.359Z" fill="#EAEBEB"/>
</g>
<defs>
<filter id="filter0_d" x="56" y="43" width="137.7" height="172.3" filterUnits="userSpaceOnUse" color-interpolation-filters="sRGB">
<feFlood flood-opacity="0" result="BackgroundImageFix"/>
<feColorMatrix in="SourceAlpha" type="matrix" values="0 0 0 0 0 0 0 0 0 0 0 0 0 0 0 0 0 0 127 0"/>
<feOffset dy="4"/>
<feGaussianBlur stdDeviation="2"/>
<feColorMatrix type="matrix" values="0 0 0 0 0 0 0 0 0 0 0 0 0 0 0 0 0 0 0.25 0"/>
<feBlend mode="normal" in2="BackgroundImageFix" result="effect1_dropShadow"/>
<feBlend mode="normal" in="SourceGraphic" in2="effect1_dropShadow" result="shape"/>
</filter>
<filter id="filter1_d" x="60.8941" y="51.7355" width="133.72" height="161.564" filterUnits="userSpaceOnUse" color-interpolation-filters="sRGB">
<feFlood flood-opacity="0" result="BackgroundImageFix"/>
<feColorMatrix in="SourceAlpha" type="matrix" values="0 0 0 0 0 0 0 0 0 0 0 0 0 0 0 0 0 0 127 0"/>
<feOffset dx="3" dy="3"/>
<feGaussianBlur stdDeviation="1.5"/>
<feColorMatrix type="matrix" values="0 0 0 0 0 0 0 0 0 0 0 0 0 0 0 0 0 0 0.25 0"/>
<feBlend mode="normal" in2="BackgroundImageFix" result="effect1_dropShadow"/>
<feBlend mode="normal" in="SourceGraphic" in2="effect1_dropShadow" result="shape"/>
</filter>
</defs>
</svg>
