<svg width="250" height="250" viewBox="0 0 250 250" fill="none" xmlns="http://www.w3.org/2000/svg">
<circle cx="125" cy="125" r="125" fill="#45239E"/>
<rect x="75" y="55" width="100" height="130" fill="#EAEBEB"/>
<path d="M79.3367 192.2L74.9748 184.7H83.6986L79.3367 192.2Z" fill="#EAEBEB"/>
<path d="M162.382 192.2L158.02 184.7H166.744L162.382 192.2Z" fill="#EAEBEB"/>
<path d="M170.614 192.5L166.228 185H174.999L170.614 192.5Z" fill="#EAEBEB"/>
<path d="M154.172 192.2L149.81 184.7H158.534L154.172 192.2Z" fill="#EAEBEB"/>
<path d="M112.604 192.2L108.242 184.7H116.966L112.604 192.2Z" fill="#EAEBEB"/>
<path d="M87.5466 192.2L83.1847 184.7H91.9085L87.5466 192.2Z" fill="#EAEBEB"/>
<path d="M95.7565 192.2L91.3946 184.7H100.118L95.7565 192.2Z" fill="#EAEBEB"/>
<path d="M103.966 192.2L99.6046 184.7H108.328L103.966 192.2Z" fill="#EAEBEB"/>
<path d="M121.332 192.2L116.971 184.7H125.694L121.332 192.2Z" fill="#EAEBEB"/>
<path d="M129.542 192.2L125.18 184.7H133.904L129.542 192.2Z" fill="#EAEBEB"/>
<path d="M137.752 192.2L133.39 184.7H142.114L137.752 192.2Z" fill="#EAEBEB"/>
<path d="M145.962 192.2L141.6 184.7H150.324L145.962 192.2Z" fill="#EAEBEB"/>
<rect x="85" y="70" width="81" height="4" fill="#C4C4C4"/>
<rect x="85" y="80" width="81" height="4" fill="#C4C4C4"/>
<rect x="85" y="90" width="81" height="4" fill="#C4C4C4"/>
<rect x="85" y="100" width="81" height="4" fill="#C4C4C4"/>
<rect x="85" y="110" width="81" height="4" fill="#C4C4C4"/>
<rect x="85" y="121" width="81" height="4" fill="#C4C4C4"/>
<rect x="85" y="130" width="40" height="4" fill="#C4C4C4"/>
<rect x="85" y="130" width="40" height="4" fill="#C4C4C4"/>
<rect x="85" y="140" width="40" height="4" fill="#C4C4C4"/>
<rect x="85" y="150" width="40" height="4" fill="#C4C4C4"/>
<rect x="85" y="160" width="40" height="4" fill="#C4C4C4"/>
<rect x="85" y="170" width="40" height="4" fill="#C4C4C4"/>
<path d="M164.3 134.775H155.577C157.154 136.407 158.152 138.401 158.571 140.758H166L164.3 145.533H158.682C158.238 149.119 156.501 151.819 153.47 153.632C150.439 155.445 146.226 156.352 140.83 156.352L159.051 173.637V174H150.661L131.072 155.354L131.035 151.577H140.238C143.318 151.557 145.819 151.013 147.741 149.945C149.663 148.857 150.883 147.386 151.4 145.533H130L131.7 140.758H151.326C150.144 136.93 146.522 134.936 140.46 134.775H130.074L131.811 130H166L164.3 134.775Z" fill="#7D7D7D"/>
</svg>
